<?xml version="1.0" standalone="no"?>
<!DOCTYPE svg PUBLIC "-//W3C//DTD SVG 20010904//EN"
 "http://www.w3.org/TR/2001/REC-SVG-20010904/DTD/svg10.dtd">
<svg version="1.0" xmlns="http://www.w3.org/2000/svg"
 width="120.000000pt" height="30.500000pt" viewBox="0 0 1000.000000 230.000000"
 preserveAspectRatio="xMidYMid meet">

<g transform="translate(0.000000,230.000000) scale(0.100000,-0.100000)"
fill="#000000" stroke="none">
<path d="M8938 1910 c-141 -24 -255 -85 -364 -194 -96 -97 -152 -198 -191
-344 -23 -86 -27 -116 -27 -262 0 -138 3 -180 22 -255 65 -259 221 -435 457
-512 70 -23 97 -26 220 -27 118 -1 152 3 220 22 92 27 177 70 235 119 l40 35
0 334 0 334 -265 0 -265 0 0 -100 0 -100 155 0 155 0 0 -184 0 -185 -54 -26
c-109 -53 -255 -55 -391 -4 -80 30 -166 112 -210 203 -56 115 -69 181 -69 346
0 165 13 231 69 346 123 251 440 330 660 164 l65 -49 65 77 64 77 -47 43 c-61
55 -189 119 -277 137 -75 16 -190 18 -267 5z"/>
<path d="M430 1115 l0 -775 110 0 110 0 0 428 c0 381 -7 590 -26 762 -8 79 7
55 51 -80 28 -87 299 -838 340 -942 6 -15 20 -18 84 -18 l76 0 158 438 c86
240 175 487 197 547 l41 110 -6 -85 c-3 -47 -10 -141 -15 -210 -5 -69 -10
-311 -10 -537 l0 -413 115 0 115 0 0 775 0 776 -142 -3 -142 -3 -113 -315
c-62 -173 -147 -417 -189 -542 -42 -126 -79 -228 -83 -228 -4 0 -26 60 -49
133 -23 72 -109 317 -191 542 l-148 410 -142 3 -141 3 0 -776z"/>
<path d="M2190 1115 l0 -775 465 0 465 0 0 105 0 105 -345 0 -345 0 0 245 0
245 283 2 282 3 3 103 3 102 -286 0 -285 0 0 215 0 215 335 0 335 0 0 105 0
105 -455 0 -455 0 0 -775z"/>
<path d="M3530 1218 c-123 -370 -238 -719 -256 -775 l-32 -103 123 0 123 0 11
33 c5 17 31 102 56 187 25 85 51 170 56 188 l11 32 267 0 268 0 52 -177 c29
-98 58 -196 65 -218 l13 -40 126 -3 c70 -1 127 1 127 5 0 4 -113 353 -252 775
l-253 768 -141 0 -142 0 -222 -672z m414 292 c26 -96 71 -256 100 -355 l53
-180 -205 -3 c-113 -1 -206 -1 -208 1 -2 2 25 100 60 218 34 118 80 281 101
362 21 81 41 144 45 140 4 -4 28 -87 54 -183z"/>
<path d="M4740 1115 l0 -775 115 0 115 0 0 424 c0 294 -5 483 -16 616 -8 106
-13 194 -12 196 2 2 44 -74 92 -169 49 -95 203 -373 343 -619 l254 -448 125 0
124 0 0 775 0 775 -115 0 -115 0 0 -417 c0 -277 5 -485 15 -617 8 -110 13
-201 10 -204 -2 -2 -46 80 -98 184 -52 104 -205 383 -339 619 l-246 430 -126
3 -126 3 0 -776z"/>
<path d="M6260 1770 l0 -120 120 0 120 0 0 120 0 120 -120 0 -120 0 0 -120z"/>
<path d="M6890 1115 l0 -775 115 0 115 0 0 424 c0 294 -5 483 -16 616 -8 106
-13 194 -12 196 2 2 44 -74 92 -169 49 -95 203 -373 343 -619 l254 -448 125 0
124 0 0 775 0 775 -115 0 -115 0 0 -417 c0 -277 5 -485 15 -617 8 -110 13
-201 10 -204 -2 -2 -46 80 -98 184 -52 104 -205 383 -339 619 l-246 430 -126
3 -126 3 0 -776z"/>
<path d="M6260 930 l0 -590 120 0 120 0 0 590 0 590 -120 0 -120 0 0 -590z"/>
</g>
</svg>
